<?xml version="1.0" encoding="utf-8"?>
<!-- Generator: Adobe Illustrator 24.2.3, SVG Export Plug-In . SVG Version: 6.00 Build 0)  -->
<svg version="1.1" id="Calque_1" xmlns="http://www.w3.org/2000/svg" xmlns:xlink="http://www.w3.org/1999/xlink" x="0px" y="0px"
	 viewBox="0 0 240 44" style="enable-background:new 0 0 240 44;" xml:space="preserve">
<style type="text/css">
	.st0{fill:#645CFF;}
</style>
<g>
	<path class="st0" d="M20,20.1l-6.5-0.7c0.2-1.1,0.6-2,1.1-2.7c0.5-0.6,1.1-1.2,2-1.7c0.6-0.3,1.5-0.6,2.6-0.8
		c1.1-0.2,2.3-0.3,3.5-0.3c2,0,3.7,0.1,4.9,0.3c1.2,0.2,2.3,0.7,3.1,1.4c0.6,0.5,1,1.2,1.4,2.1c0.3,0.9,0.5,1.8,0.5,2.6v7.8
		c0,0.8,0.1,1.5,0.2,2c0.1,0.5,0.3,1.1,0.7,1.8h-6.3c-0.3-0.5-0.4-0.8-0.5-1c-0.1-0.2-0.2-0.6-0.2-1.1c-0.9,0.9-1.8,1.5-2.6,1.8
		c-1.2,0.5-2.6,0.7-4.2,0.7c-2.1,0-3.7-0.5-4.8-1.5c-1.1-1-1.6-2.2-1.6-3.6c0-1.3,0.4-2.4,1.2-3.3c0.8-0.9,2.2-1.5,4.3-1.9
		c2.5-0.5,4.2-0.9,4.9-1.1c0.8-0.2,1.5-0.5,2.4-0.8c0-0.8-0.2-1.4-0.5-1.7C25,18.2,24.4,18,23.5,18c-1.1,0-1.9,0.2-2.5,0.5
		C20.6,18.8,20.2,19.3,20,20.1z M25.8,23.6c-0.9,0.3-1.9,0.6-2.9,0.9c-1.4,0.4-2.2,0.7-2.6,1.1c-0.4,0.4-0.6,0.8-0.6,1.2
		c0,0.5,0.2,1,0.6,1.3c0.4,0.3,0.9,0.5,1.6,0.5c0.8,0,1.5-0.2,2.1-0.5s1.1-0.8,1.4-1.3c0.3-0.5,0.4-1.2,0.4-2V23.6z"/>
	<path class="st0" d="M36.8,38.7V14.4h6.3V17c0.9-1.1,1.7-1.8,2.4-2.2c1-0.5,2.1-0.8,3.3-0.8c2.4,0,4.2,0.9,5.5,2.7
		c1.3,1.8,1.9,4,1.9,6.7c0,2.9-0.7,5.2-2.1,6.7c-1.4,1.5-3.2,2.3-5.3,2.3c-1,0-2-0.2-2.8-0.5c-0.9-0.4-1.6-0.9-2.3-1.6v8.4H36.8z
		 M43.6,23.2c0,1.4,0.3,2.4,0.9,3.1c0.6,0.7,1.3,1,2.2,1c0.8,0,1.4-0.3,2-1c0.5-0.6,0.8-1.7,0.8-3.3c0-1.4-0.3-2.5-0.8-3.1
		c-0.6-0.7-1.2-1-2-1c-0.9,0-1.6,0.3-2.2,1C43.9,20.6,43.6,21.7,43.6,23.2z"/>
	<path class="st0" d="M59.5,38.7V14.4h6.3V17c0.9-1.1,1.7-1.8,2.4-2.2c1-0.5,2.1-0.8,3.3-0.8c2.4,0,4.2,0.9,5.5,2.7
		c1.3,1.8,1.9,4,1.9,6.7c0,2.9-0.7,5.2-2.1,6.7c-1.4,1.5-3.2,2.3-5.3,2.3c-1,0-2-0.2-2.8-0.5c-0.9-0.4-1.6-0.9-2.3-1.6v8.4H59.5z
		 M66.3,23.2c0,1.4,0.3,2.4,0.9,3.1c0.6,0.7,1.3,1,2.2,1c0.8,0,1.4-0.3,2-1c0.5-0.6,0.8-1.7,0.8-3.3c0-1.4-0.3-2.5-0.8-3.1
		c-0.6-0.7-1.2-1-2-1c-0.9,0-1.6,0.3-2.2,1C66.6,20.6,66.3,21.7,66.3,23.2z"/>
	<path class="st0" d="M81,27.1l6.7-0.6c0.3,0.8,0.7,1.4,1.2,1.7s1.2,0.5,2,0.5c0.9,0,1.6-0.2,2.1-0.6c0.4-0.3,0.6-0.6,0.6-1.1
		c0-0.5-0.3-0.9-0.8-1.1c-0.4-0.2-1.3-0.4-2.9-0.7c-2.3-0.4-4-0.8-4.9-1.1c-0.9-0.3-1.7-0.9-2.3-1.8c-0.6-0.8-0.9-1.8-0.9-2.8
		c0-1.2,0.3-2.2,1-3c0.7-0.8,1.6-1.5,2.8-1.9c1.2-0.4,2.8-0.6,4.8-0.6c2.1,0,3.7,0.2,4.7,0.5c1,0.3,1.8,0.8,2.5,1.5
		c0.7,0.7,1.2,1.6,1.7,2.7l-6.4,0.6c-0.2-0.6-0.4-1-0.8-1.2c-0.5-0.4-1.2-0.5-1.9-0.5c-0.8,0-1.3,0.1-1.7,0.4s-0.5,0.6-0.5,1
		c0,0.4,0.2,0.8,0.7,1c0.4,0.2,1.4,0.4,2.9,0.6c2.2,0.3,3.9,0.6,5,1.1c1.1,0.5,1.9,1.1,2.5,1.9c0.6,0.8,0.9,1.8,0.9,2.8
		c0,1-0.3,2-0.9,3c-0.6,1-1.6,1.7-2.9,2.3c-1.3,0.6-3.1,0.9-5.4,0.9c-3.2,0-5.5-0.5-6.9-1.4C82.2,30.1,81.4,28.8,81,27.1z"/>
	<path class="st0" d="M103,14.4h6.3v2.9c0.6-1.3,1.2-2.1,1.9-2.6c0.6-0.5,1.4-0.7,2.4-0.7c1,0,2.1,0.3,3.3,0.9l-2.1,4.8
		c-0.8-0.3-1.4-0.5-1.9-0.5c-0.9,0-1.6,0.4-2.1,1.1c-0.7,1-1,3-1,5.8V32H103V14.4z"/>
	<path d="M115.4,25.2h7.2V32h-7.2V25.2z"/>
	<path d="M134.2,14.4h3.2v4.9h-3.2V32h-6.8V19.3h-2.5v-4.9h2.5v-0.8c0-0.7,0.1-1.5,0.2-2.4s0.4-1.6,0.9-2.1c0.4-0.5,1-1,1.8-1.3
		c0.8-0.3,1.9-0.5,3.4-0.5c1.2,0,2.9,0.1,5.2,0.4l-0.7,4.1c-0.8-0.1-1.5-0.2-2-0.2c-0.6,0-1,0.1-1.3,0.3c-0.3,0.2-0.5,0.5-0.6,1
		C134.3,13.1,134.2,13.6,134.2,14.4z"/>
	<path d="M140,14.4h6.3v2.9c0.6-1.3,1.2-2.1,1.9-2.6c0.6-0.5,1.4-0.7,2.4-0.7c1,0,2.1,0.3,3.3,0.9l-2.1,4.8
		c-0.8-0.3-1.4-0.5-1.9-0.5c-0.9,0-1.6,0.4-2.1,1.1c-0.7,1-1,3-1,5.8V32H140V14.4z"/>
</g>
</svg>
